# xmcd
#
# Track frame offsets:
# 150
# 27917
# 47887
# 64735
# 82445
# 106205
# 130790
# 148607
# 167315
# 182130
# 202987
# 224865
# 241780
#
# Disc length: 3467 seconds
#
#
# Revision: 2
# Processed by: cddbd v1.5.2PL0 Copyright (c) Steve Scherf et al.
# Submitted via: FreeRIP 2.941 
#
DISCID=bd0d890d
DTITLE=Driftland - Songs of love and hope
DYEAR=2003
DGENRE=Folk/Rock
TTITLE0=Song of love and hope
TTITLE1=From losers to lovers
TTITLE2=Wrong side of town
TTITLE3=Youth is wasted on the young
TTITLE4=Sad song
TTITLE5=Gameshow
TTITLE6=Maybe I'm amazed
TTITLE7=80's girl
TTITLE8=Right is the new wrong
TTITLE9=The story of Patti and Ray
TTITLE10=Brandnew day
TTITLE11=I feel love
TTITLE12=All the kings horses
EXTD=
EXTT0=
EXTT1=
EXTT2=
EXTT3=
EXTT4=
EXTT5=
EXTT6=
EXTT7=
EXTT8=
EXTT9=
EXTT10=
EXTT11=
EXTT12=
PLAYORDER=
